<?xml version="1.0" standalone="no"?>
<!DOCTYPE svg PUBLIC "-//W3C//DTD SVG 20010904//EN"
 "http://www.w3.org/TR/2001/REC-SVG-20010904/DTD/svg10.dtd">
<svg version="1.0" xmlns="http://www.w3.org/2000/svg"
 width="512.000000pt" height="512.000000pt" viewBox="0 0 512.000000 512.000000"
 preserveAspectRatio="xMidYMid meet">

<g transform="translate(0.000000,512.000000) scale(0.100000,-0.100000)"
fill="#000000" stroke="none">
<path d="M2481 5108 c-71 -20 -132 -72 -169 -143 -34 -67 -37 -168 -5 -237 27
-59 92 -122 149 -144 l44 -17 0 -298 0 -299 -340 0 -340 0 0 140 0 139 50 22
c96 41 170 152 170 254 0 103 -74 213 -172 255 -102 44 -232 16 -310 -67 -128
-134 -79 -367 95 -443 l47 -21 0 -138 0 -138 -110 -6 c-172 -10 -275 -59 -355
-167 -53 -72 -75 -143 -82 -270 l-6 -110 -144 0 c-131 0 -143 1 -143 18 0 22
-48 99 -81 129 -98 89 -275 87 -372 -5 -83 -78 -111 -208 -67 -310 42 -98 152
-172 255 -172 102 0 213 74 254 170 l22 50 139 0 140 0 0 -340 0 -340 -299 0
-298 0 -17 44 c-39 103 -144 171 -261 170 -112 -1 -193 -52 -246 -154 -35 -67
-33 -176 3 -246 50 -95 135 -147 243 -148 117 -1 208 57 257 164 l23 50 297 0
298 0 0 -340 0 -340 -140 0 -139 0 -22 50 c-41 96 -152 170 -254 170 -103 0
-213 -74 -255 -172 -44 -102 -16 -232 67 -310 97 -92 274 -94 372 -5 33 30 81
107 81 129 0 17 12 18 143 18 l144 0 6 -110 c7 -127 29 -198 82 -270 80 -108
183 -157 355 -167 l110 -6 0 -138 0 -138 -49 -21 c-137 -60 -203 -228 -142
-365 45 -101 124 -156 235 -163 92 -6 156 20 220 88 100 106 100 264 0 370
-25 27 -66 57 -94 69 l-50 22 0 139 0 140 340 0 340 0 0 -299 0 -298 -44 -17
c-176 -67 -228 -308 -97 -449 14 -16 48 -40 75 -54 137 -70 296 -20 371 118
38 70 41 169 8 241 -27 59 -92 122 -149 144 l-44 17 0 298 0 299 340 0 340 0
0 -140 0 -139 -50 -22 c-96 -41 -170 -152 -170 -254 0 -103 74 -213 172 -255
102 -44 232 -16 310 67 127 133 77 369 -93 443 l-49 21 0 138 0 138 110 6
c172 10 275 59 355 167 53 72 75 143 82 270 l6 110 138 0 138 0 21 -49 c74
-171 309 -220 443 -93 83 78 111 208 67 310 -42 98 -152 172 -255 172 -102 0
-213 -74 -254 -170 l-22 -50 -139 0 -140 0 0 340 0 340 298 0 297 0 22 -48
c98 -213 382 -226 497 -22 27 48 31 65 31 130 0 64 -4 83 -30 128 -53 98 -132
145 -240 146 -117 1 -222 -67 -261 -170 l-17 -44 -298 0 -299 0 0 340 0 340
140 0 139 0 22 -50 c41 -96 152 -170 254 -170 103 0 213 74 255 172 44 102 16
232 -67 310 -102 97 -277 95 -381 -5 -36 -34 -72 -96 -72 -122 0 -13 -21 -15
-143 -15 l-144 0 -6 110 c-7 127 -29 198 -82 270 -80 108 -183 157 -355 167
l-110 6 0 144 c0 131 1 143 18 143 22 0 99 48 129 81 89 98 87 275 -5 372 -78
83 -208 111 -310 67 -98 -42 -172 -152 -172 -255 0 -102 74 -213 170 -254 l50
-22 0 -139 0 -140 -340 0 -340 0 0 298 0 297 50 23 c107 49 165 140 164 257 0
55 -6 81 -27 121 -61 119 -199 179 -326 142z m1202 -1292 c64 -31 126 -99 149
-163 10 -31 13 -241 13 -1098 l0 -1060 -21 -46 c-28 -60 -93 -125 -153 -153
l-46 -21 -1065 0 -1065 0 -58 29 c-66 34 -110 79 -141 145 -21 46 -21 49 -21
1111 0 1060 0 1065 21 1110 42 91 121 154 212 170 26 4 513 7 1082 6 l1035 -1
58 -29z"/>
<path d="M2163 3686 c-91 -30 -174 -100 -216 -182 -9 -17 -30 -37 -47 -44 -63
-26 -150 -153 -150 -218 0 -8 -20 -32 -44 -54 -82 -72 -126 -211 -98 -312 10
-36 9 -40 -14 -59 -88 -69 -128 -150 -128 -257 0 -107 40 -188 128 -257 23
-19 24 -23 14 -59 -28 -101 16 -240 98 -312 24 -22 44 -46 44 -54 0 -65 87
-192 150 -218 19 -8 39 -28 51 -53 29 -55 100 -121 167 -154 49 -24 69 -27
147 -28 76 0 99 4 146 26 31 15 77 47 103 72 l48 45 35 -39 c19 -21 65 -53
101 -71 60 -30 75 -33 157 -33 79 0 97 3 149 29 68 34 135 96 165 154 12 24
32 44 51 52 63 26 150 153 150 218 0 8 19 31 43 52 82 73 126 213 99 314 -10
36 -9 40 14 59 88 69 128 150 128 257 0 107 -40 188 -128 257 -23 19 -24 23
-14 59 28 101 -16 240 -98 312 -24 22 -44 46 -44 54 0 65 -87 192 -150 218
-19 8 -39 28 -51 52 -30 58 -97 120 -165 154 -52 26 -70 29 -149 29 -82 0 -97
-3 -157 -33 -36 -18 -82 -50 -102 -72 l-36 -40 -36 40 c-56 62 -149 103 -242
107 -47 2 -93 -3 -119 -11z m214 -134 c46 -24 89 -71 110 -119 9 -23 13 -85
13 -218 l0 -186 -27 3 c-21 2 -36 19 -75 85 -51 87 -77 105 -117 84 -41 -23
-37 -54 23 -160 30 -54 63 -104 71 -111 9 -8 41 -15 71 -18 l54 -4 0 -49 0
-49 -68 0 -68 0 -74 76 c-70 71 -115 104 -140 104 -18 0 -50 -39 -50 -63 0
-15 33 -56 105 -127 l105 -105 95 -3 95 -4 0 -34 0 -34 -222 0 c-192 0 -224
-2 -240 -17 -22 -20 -23 -61 -1 -85 15 -16 36 -18 240 -18 l223 0 0 -34 0 -34
-95 -4 -95 -3 -105 -105 c-72 -71 -105 -112 -105 -127 0 -24 32 -63 50 -63 25
0 70 33 140 104 l74 76 68 0 68 0 0 -49 0 -49 -54 -4 c-30 -3 -62 -10 -71 -18
-8 -7 -41 -57 -71 -111 -60 -106 -64 -137 -23 -160 40 -21 66 -3 117 84 39 66
54 83 75 85 l27 3 0 -186 c0 -201 -4 -223 -56 -284 -76 -90 -211 -105 -318
-35 l-40 27 24 10 c152 57 213 124 163 179 -24 27 -55 22 -106 -18 -96 -75
-228 -49 -283 57 -34 66 -11 167 52 227 33 32 32 76 -2 99 -26 16 -28 16 -63
-4 -20 -11 -52 -44 -71 -72 l-34 -51 -20 31 c-27 44 -32 119 -12 174 22 57 83
111 141 126 24 6 50 17 56 25 15 18 15 60 -1 79 -29 36 -144 6 -213 -55 -34
-29 -37 -30 -60 -16 -93 62 -93 250 0 312 22 14 26 13 65 -20 67 -57 180 -85
208 -51 16 19 16 61 1 79 -6 8 -32 19 -56 25 -58 15 -119 69 -141 126 -20 55
-15 130 12 174 l20 31 34 -51 c19 -28 51 -61 71 -72 35 -20 37 -20 63 -4 35
23 37 79 3 102 -38 25 -67 87 -67 144 0 157 171 236 297 137 51 -40 77 -44
105 -19 55 50 -10 123 -161 180 l-24 9 33 24 c76 54 176 63 257 22z m542 18
c19 -5 53 -22 75 -36 l40 -27 -24 -10 c-115 -43 -180 -93 -180 -137 0 -59 67
-81 109 -36 68 72 183 75 254 8 42 -40 57 -75 57 -134 0 -56 -21 -103 -66
-146 -33 -32 -32 -76 2 -99 26 -16 28 -16 63 4 20 11 52 44 71 72 l34 51 20
-31 c27 -44 32 -119 12 -174 -22 -57 -83 -111 -141 -126 -24 -6 -50 -17 -56
-25 -15 -18 -15 -60 1 -79 28 -34 141 -6 208 51 39 33 43 34 65 20 93 -62 93
-250 0 -312 -23 -14 -26 -13 -60 16 -69 61 -184 91 -213 55 -16 -19 -16 -61
-1 -79 6 -8 32 -19 56 -25 58 -15 119 -69 141 -126 20 -55 15 -130 -12 -174
l-20 -31 -34 51 c-19 28 -51 61 -71 72 -35 20 -37 20 -63 4 -34 -23 -35 -67
-2 -99 63 -60 86 -161 52 -227 -55 -106 -187 -132 -283 -57 -51 40 -77 44
-105 19 -56 -50 9 -122 162 -181 25 -9 24 -10 -24 -40 -103 -66 -237 -49 -311
40 -51 60 -55 83 -55 283 l0 186 27 -3 c21 -2 36 -19 75 -85 51 -87 77 -105
117 -84 41 23 37 54 -23 160 -30 54 -63 104 -71 111 -9 8 -41 15 -71 18 l-54
4 0 49 0 49 68 0 68 0 74 -76 c70 -71 115 -104 140 -104 18 0 50 39 50 63 0
15 -33 56 -105 127 l-105 105 -95 3 -95 4 0 34 0 34 222 0 c192 0 224 2 240
17 22 20 23 61 1 85 -15 16 -36 18 -240 18 l-223 0 0 34 0 34 95 4 95 3 105
105 c72 71 105 112 105 127 0 24 -32 63 -50 63 -25 0 -70 -33 -140 -104 l-74
-76 -68 0 -68 0 0 49 0 49 54 4 c30 3 62 10 71 18 8 7 41 57 71 111 60 106 64
137 23 160 -40 21 -66 3 -117 -84 -40 -67 -53 -83 -76 -85 l-27 -3 3 199 3
200 30 43 c64 90 164 128 264 99z"/>
</g>
</svg>
